<svg width="24" height="24" viewBox="0 0 24 24" fill="none" xmlns="http://www.w3.org/2000/svg">
<path d="M7.10757 18.1618C8.49243 19.3099 10.2707 20 12.2101 20C16.6284 20 20.2101 16.4183 20.2101 12C20.2101 11.431 20.1507 10.8758 20.0377 10.3404M7.10757 18.1618C5.33752 16.6944 4.2101 14.4789 4.2101 12C4.2101 7.58172 7.79182 4 12.2101 4C16.0593 4 19.2736 6.71853 20.0377 10.3404M7.10757 18.1618C9.0631 17.7147 11.3895 16.7828 13.736 15.4281C16.4663 13.8517 18.6872 12.0125 20.0377 10.3404M7.10757 18.1618C4.6784 18.7171 2.82155 18.5243 2.20961 17.4644C1.5793 16.3726 2.40627 14.5969 4.20995 12.709M20.0377 10.3404C21.2895 8.79041 21.7935 7.38405 21.2622 6.46374C20.7234 5.53051 19.2195 5.26939 17.2096 5.59929" stroke="white" stroke-width="2" stroke-linecap="round" stroke-linejoin="round"/>
</svg>
